<svg width="40" height="40" viewBox="0 0 40 40" fill="none" xmlns="http://www.w3.org/2000/svg">
<g clip-path="url(#clip0_1105_5928)">
<path d="M13.3337 24.9998C13.3337 23.1589 11.8413 21.6665 10.0003 21.6665C8.15938 21.6665 6.66699 23.1589 6.66699 24.9998V28.3332C6.66699 30.1741 8.15938 31.6665 10.0003 31.6665C11.8413 31.6665 13.3337 30.1741 13.3337 28.3332V24.9998Z" stroke="white" stroke-width="2" stroke-linecap="round" stroke-linejoin="round"/>
<path d="M33.3337 24.9998C33.3337 23.1589 31.8413 21.6665 30.0003 21.6665C28.1594 21.6665 26.667 23.1589 26.667 24.9998V28.3332C26.667 30.1741 28.1594 31.6665 30.0003 31.6665C31.8413 31.6665 33.3337 30.1741 33.3337 28.3332V24.9998Z" stroke="white" stroke-width="2" stroke-linecap="round" stroke-linejoin="round"/>
<path d="M6.66699 24.9998V19.9998C6.66699 16.4636 8.07175 13.0722 10.5722 10.5717C13.0727 8.07126 16.4641 6.6665 20.0003 6.6665C23.5365 6.6665 26.9279 8.07126 29.4284 10.5717C31.9289 13.0722 33.3337 16.4636 33.3337 19.9998V24.9998" stroke="white" stroke-width="2" stroke-linecap="round" stroke-linejoin="round"/>
<path d="M30 31.6665C30 32.9926 28.9464 34.2644 27.0711 35.202C25.1957 36.1397 22.6522 36.6665 20 36.6665" stroke="white" stroke-width="2" stroke-linecap="round" stroke-linejoin="round"/>
</g>
<defs>
<clipPath id="clip0_1105_5928">
<rect width="40" height="40" fill="white"/>
</clipPath>
</defs>
</svg>
